<svg xmlns="http://www.w3.org/2000/svg" shape-rendering="crispEdges" viewBox="0 0 256 144"><title>BOSS FIGHT</title><defs><path id="b" d="M0 0h2M0 1h1m1 0h1M0 2h2M0 3h1m1 0h1M0 4h2"/><path id="c" d="M0 0h3M0 1h1m1 0h1M0 2h1m1 0h1M0 3h1m1 0h1M0 4h3"/><path id="m" d="M0 0h3M0 1h1M0 2h3M2 3h1M0 4h3"/><path id="h" d="M0 0h3M0 1h1M0 2h2M0 3h1M0 4h1"/><path id="n" d="M0 0h3M1 1h1M1 2h1M1 3h1M0 4h3"/><path id="o" d="M0 0h3M0 1h1M0 2h1m1 0h1M0 3h1m1 0h1M0 4h3"/><path id="p" d="M0 0h1m1 0h1M0 1h1m1 0h1M0 2h3M0 3h1m1 0h1M0 4h1m1 0h1"/><path id="i" d="M0 0h3M1 1h1M1 2h1M1 3h1M1 4h1"/><path id="d" d="M0 0h1m1 0h1M0 1h3M0 2h3M0 3h3M0 4h1m1 0h1"/><path id="e" d="M0 0h1m1 0h1M0 1h1m1 0h1M0 2h2M0 3h1m1 0h1M0 4h1m1 0h1"/><path id="g" d="M0 0h2M0 1h1m1 0h1M0 2h2M0 3h1M0 4h1"/><path id="q" d="M0 0h2M0 1h1m1 0h1M0 2h2M0 3h1m1 0h1M0 4h1m1 0h1"/><path id="r" d="M0 0h1m1 0h1M0 1h1m1 0h1M1 2h1M1 3h1M1 4h1"/><path id="s" d="M0 0h2M0 1h1m1 0h1M0 2h1m1 0h1M0 3h1m1 0h1M0 4h2"/><path id="t" d="M0 0h3M0 1h1M0 2h2M0 3h1M0 4h3"/><path id="f" d="M0 0h1M0 1h1M0 2h1M0 4h1"/><path id="a" fill="#ffd181" d="M-1-5h2v4h4v2H1v4h-2V1h-4v-2h4z"/><path id="k" fill="#ed91ab" d="M-4-3h3v2h2v-2h3v5H2v2H0v2h-2V4h-2V2h-2v-5z"/><g id="j"><path fill="#b77443" d="M-4-5h8v2h2v6H4v2h-8V3h-2v-6h2z"/><path fill="#ffd181" d="M-3-4h6v2h2v4H3v2h-6V2h-2v-4h2z"/><path fill="#74463e" d="M-2-2h2v2h-2zm4 3h2v2H2zm-5 1h2v1h-2z"/></g><g id="l"><path fill="#6fae83" d="M0 0h2v13H0zm2 6h4v2H2z"/><path fill="#ed91ab" d="M-2-4h6v2h2v4H4v2h-6V2h-2v-4h2z"/><path fill="#ffd181" d="M0-1h2v2H0z"/></g></defs><path fill="#11192e" d="M0 0h256v144H0z"/><path fill="#1c253d" d="M0 60h256v57H0z"/><path fill="#29324a" d="M0 82h256v35H0z"/><path fill="#ecbd84" d="M29 19h12v3h4v13h-4v4H29v-4h-4V22h4z"/><path fill="#ffe0a1" d="M33 19h8v3h4v13h-4v4h-8v-4h-4V22h4z"/><path fill="#8395ad" d="M14 43h2v2h-2zm48-23h2v2h-2zm165 3h2v2h-2zM112 38h2v2h-2zm128 20h2v2h-2zM86 51h2v2h-2zm125-9h2v2h-2z"/><path fill="#252742" d="M139 114V56h9V43h12v-9h45v9h13v13h9v58h-14V61h-8V50h-45v11h-8v53z"/><path fill="#393952" d="M146 53h10v4h-10zm20-14h10v4h-10zm25 0h10v4h-10zm20 18h10v4h-10zm-70 19h11v4h-11zm73 11h10v4h-10z"/><path fill="#2e4c51" d="M8 111V81H0l13-24 14 24h-9v30zm225 3V91h-11l16-26 18 26h-12v23z"/><path fill="#28273b" d="M0 117h256v27H0z"/><path fill="#657b77" d="M0 117h256v4H0z"/><path fill="#435856" d="M0 121h256v3H0z"/><path fill="#3b3b50" d="M3 132h24v2H3zm33-7h18v2H36zm29 11h30v2H65zm44-8h23v2h-23zm41 9h24v2h-24zm46-11h18v2h-18zm30 10h21v2h-21z"/><path fill="#6d9c87" d="M9 117v-9h2v4h3v-7h2v12zm229 0v-6h-4v-2h4v-5h2v13zm-16 0v-5h2v5z"/><path fill="#6bd7cf" d="M14 102h2v3h-2zm218 3h4v3h-4z"/><g><animate attributeName="opacity" dur="24s" keyTimes="0;.688;.75;.992;1" repeatCount="indefinite" values="0;0;0.09;0.09;0"/><path fill="#eec49d" d="M0 0h256v117H0z"/></g><path fill="#171d30" d="M149 114h56v3h-56z"/><g><animateTransform attributeName="transform" dur="24s" keyTimes="0;.683;.708;.721;.771;.8;.992;1" repeatCount="indefinite" values="182 117;182 117;182 112;182 117;182 117;174 117;174 117;182 117"/><path fill="#17172e" d="M-26-49h6v-9h13v-5H9v5h12v9h7v35h-5v13H8v-5H-8v5h-16v-13h-5v-35z"/><path fill="#8465b0" d="M-22-47h6v-9h12v-4H7v6h11v9h7v30h-6v11h-9v-6H-9v6h-12v-13h-5v-25h4z"/><path fill="#b398d7" d="M-18-45h5v-8h9v-4H6v6H-7v8h-7v18h-7z"/><path fill="#a587c8" d="M-14-29h27v4h7v17h-9v-4H-9v4h-12v-17h7z"/><path fill="#edcca5" d="M-19-58h-5v-10h5v4h5v8zm36 1h7v-11h-5v6h-5z"/><g><animate attributeName="opacity" calcMode="discrete" dur="24s" keyTimes="0;.629;1" repeatCount="indefinite" values="1;0;1"/><path fill="#e2d5d7" d="M-18-42h13v8h-13zm23 0h13v8H5z"/><path fill="#17172e" d="M-12-39h4v5h-4zm19 0h4v5H7zm-26-7h5v2h10v4h-10v-2h-5zm23 2h10v-2h5v4h-5v2H4zm-14 21h20v3h-20z"/><path fill="#fff0cc" d="M-8-20h3v3h-3zm13 0h3v3H5z"/></g><g><animate attributeName="opacity" calcMode="discrete" dur="24s" keyTimes="0;.629;.7;1" repeatCount="indefinite" values="0;1;0;0"/><path fill="#fff0cc" d="M-18-44h13v12h-13zm23 0h13v12H5z"/><path fill="#17172e" d="M-10-41h4v7h-4zm16 0h4v7H6zM-4-24h8v9h-8z"/></g><g><animate attributeName="opacity" calcMode="discrete" dur="24s" keyTimes="0;.7;1" repeatCount="indefinite" values="0;1;0"/><path fill="#17172e" d="M-18-38v-5h4v-3h5v3h4v5h-3v-3h-7v3zm23 0v-5h4v-3h5v3h4v5h-3v-3H8v3zm-16 13h22v7H7v4H-7v-4h-4z"/><path fill="#ed91ab" d="M-7-18H7v3H-7zm-15-13h8v4h-8zm36 0h8v4h-8z"/></g><g><animate attributeName="opacity" calcMode="discrete" dur="24s" keyTimes="0;.771;1" repeatCount="indefinite" values="1;0;1"/><path fill="#684b98" d="M-26-31h-9v19h9z"/></g><g><animate attributeName="opacity" calcMode="discrete" dur="24s" keyTimes="0;.771;1" repeatCount="indefinite" values="0;1;0"/><path fill="#8465b0" d="M-25-29h-14v5h-13v8h13v-3h14z"/><path fill="#b398d7" d="M-52-23h7v6h-7z"/></g><path fill="#684b98" d="M24-31h9v19h-9z"/></g><g><animateTransform attributeName="transform" dur="24s" keyTimes="0;.096;.154;.179;.185;.2;.212;.487;.571;.992;1" repeatCount="indefinite" values="30 110;72 110;72 110;125 102;91 101;76 111;76 110;76 110;104 110;104 110;30 110"/><path fill="#17172e" d="M3-24h12v3h4v10h-3v10H1v-10h-3v-10h5z"/><path fill="#6bd7cf" d="M3-23h11v3h3v5H0v-5h3z"/><path fill="#c0f3de" d="M4-22h3v5H4z"/><path fill="#ffd19a" d="M3-15h12v7H3z"/><path fill="#17172e" d="M11-14h2v2h-2z"/><path fill="#398e99" d="M2-8h13v8H2z"/><path fill="#ed7d85" d="M2-8h13v3H2zM0-6h-7v3h7z"/><path fill="#17172e" d="M3-1h4v6H0V2h3zm8 0h4v3h3v3h-7z"/><path fill="#e7b66c" d="M4-3h3v3H4z"/><path fill="#17172e" d="M11-10h4v2h-4z"/><g><animate attributeName="opacity" calcMode="discrete" dur="24s" keyTimes="0;.7;1" repeatCount="indefinite" values="0;1;0"/><path fill="#ffd19a" d="M10-12h8v6h-8z"/><path fill="#17172e" d="M10-11h2v2h3v-2h2v4h-7z"/></g><g><animate attributeName="opacity" calcMode="discrete" dur="24s" keyTimes="0;.396;1" repeatCount="indefinite" values="1;0;1"/><g><animateTransform attributeName="transform" dur="24s" keyTimes="0;.158;.177;.185;1" repeatCount="indefinite" type="rotate" values="0 20 -9;0 20 -9;65 20 -9;0 20 -9;0 20 -9"/><path fill="#c4e6e1" d="M17-12h5v-18h-2v-3h-2v3h-1z"/><path fill="#ffd181" d="M14-13h11v3H14zm4 3h3v6h-3z"/></g></g><g><animate attributeName="opacity" calcMode="discrete" dur="24s" keyTimes="0;.446;1" repeatCount="indefinite" values="0;1;0"/><path fill="#ffd19a" d="M15-7h9v4h-9z"/></g></g><g><animate attributeName="opacity" calcMode="discrete" dur="24s" keyTimes="0;.177;.192;1" repeatCount="indefinite" values="0;1;0;0"/><use x="151" y="89" href="#a"/></g><g fill="none" stroke="#ffd181" transform="matrix(2 0 0 2 109 48)"><animate attributeName="opacity" calcMode="discrete" dur="24s" keyTimes="0;.177;.24;1" repeatCount="indefinite" values="0;1;0;0"/><use x="0" href="#b"/><use x="4" href="#c"/><use x="8" href="#d"/><use x="12" href="#e"/><use x="16" href="#f"/></g><g><animate attributeName="opacity" calcMode="discrete" dur="24s" keyTimes="0;.3;.35;1" repeatCount="indefinite" values="0;1;0;0"/><animateTransform attributeName="transform" dur="24s" keyTimes="0;.3;.35;1" repeatCount="indefinite" values="106 91;106 91;151 88;106 91"/><use href="#a"/></g><g><animate attributeName="opacity" calcMode="discrete" dur="24s" keyTimes="0;.35;.383;1" repeatCount="indefinite" values="0;1;0;0"/><path fill="#778695" d="M144 85h3v3h-3zm8-6h3v3h-3zm2 11h2v2h-2z"/></g><g fill="none" stroke="#a1b2c4" transform="matrix(2 0 0 2 113 51)"><animate attributeName="opacity" calcMode="discrete" dur="24s" keyTimes="0;.35;.417;1" repeatCount="indefinite" values="0;1;0;0"/><use x="0" href="#g"/><use x="4" href="#h"/><use x="8" href="#h"/><use x="12" href="#i"/></g><g><animate attributeName="opacity" calcMode="discrete" dur="24s" keyTimes="0;.438;.675;1" repeatCount="indefinite" values="0;1;0;0"/><animateTransform attributeName="transform" dur="24s" keyTimes="0;.438;.458;.487;.571;.604;.654;.675;1" repeatCount="indefinite" values="98 104;98 104;100 91;100 91;128 98;148 94;180 92;182 94;98 104"/><use href="#j" transform="scale(1.2)"/></g><g><animate attributeName="opacity" calcMode="discrete" dur="24s" keyTimes="0;.673;.715;1" repeatCount="indefinite" values="0;1;0;0"/><path fill="#ffd181" d="M173 99h2v2h-2zm12-1h2v2h-2zm-5 5h2v2h-2z"/></g><g><animate attributeName="opacity" calcMode="discrete" dur="24s" keyTimes="0;.708;.846;1" repeatCount="indefinite" values="0;1;0;0"/><animateTransform attributeName="transform" dur="24s" keyTimes="0;.708;.846;1" repeatCount="indefinite" values="0 52;0 52;0 33;0 52"/><use x="164" href="#k"/><use x="199" y="5" href="#k"/></g><g><animate attributeName="opacity" calcMode="discrete" dur="24s" keyTimes="0;.775;1" repeatCount="indefinite" values="0;1;0"/><animateTransform attributeName="transform" dur="24s" keyTimes="0;.775;.842;.992;1" repeatCount="indefinite" values="151 86;151 86;126 94;126 94;151 86"/><use href="#l"/></g><g><animate attributeName="opacity" calcMode="discrete" dur="24s" keyTimes="0;.846;1" repeatCount="indefinite" values="0;1;0"/><use x="130" y="73" href="#k"/></g><g fill="none" stroke="#e7dccb" transform="matrix(2 0 0 2 89 15)"><animate attributeName="opacity" calcMode="discrete" dur="24s" keyTimes="0;.119;1" repeatCount="indefinite" values="1;0;1"/><use x="0" href="#b"/><use x="4" href="#c"/><use x="8" href="#m"/><use x="12" href="#m"/><use x="20" href="#h"/><use x="24" href="#n"/><use x="28" href="#o"/><use x="32" href="#p"/><use x="36" href="#i"/></g><g fill="none" stroke="#ffd181" transform="matrix(2 0 0 2 81 16)"><animate attributeName="opacity" calcMode="discrete" dur="24s" keyTimes="0;.854;1" repeatCount="indefinite" values="0;1;0"/><use x="0" href="#i"/><use x="4" href="#q"/><use x="8" href="#r"/><use x="16" href="#e"/><use x="20" href="#n"/><use x="24" href="#d"/><use x="28" href="#s"/><use x="32" href="#d"/><use x="36" href="#t"/><use x="40" href="#m"/><use x="44" href="#m"/></g><g><animate attributeName="opacity" dur="24s" keyTimes="0;.01;.99;1" repeatCount="indefinite" values="1;0;0;1"/><path fill="#11192e" d="M0 0h256v144H0z"/></g></svg>